<svg enable-background="new 0 0 55 55" viewBox="0 0 150 150" xmlns="http://www.w3.org/2000/svg" xmlns:xlink="http://www.w3.org/1999/xlink" width="55px"><linearGradient id="a" gradientUnits="userSpaceOnUse" x1="75" x2="75" y1="147.4036" y2="2.5964"><stop offset="0" stop-color="#20b038"/><stop offset="1" stop-color="#60d66a"/></linearGradient><path d="m2.92 147.4 10.18-37.18c-6.28-10.88-9.58-23.23-9.58-35.87.02-39.57 32.22-71.75 71.78-71.75 19.2.01 37.22 7.48 50.77 21.04s21.01 31.59 21 50.76c-.02 39.56-32.22 71.76-71.78 71.76h-.03c-12.01 0-23.82-3.02-34.3-8.73z" fill="url(#a)"/><g fill="#fff"><path d="m.33 150 10.55-38.52c-6.51-11.27-9.93-24.06-9.92-37.16.02-40.98 33.37-74.32 74.35-74.32 19.89.01 38.56 7.75 52.6 21.8s21.76 32.72 21.76 52.59c-.02 40.98-33.38 74.33-74.35 74.33h-.03c-12.44 0-24.67-3.13-35.53-9.05zm41.25-23.79 2.26 1.34c9.49 5.63 20.36 8.61 31.45 8.61h.02c34.06 0 61.78-27.72 61.8-61.78 0-16.51-6.42-32.03-18.08-43.71-11.67-11.67-27.19-18.11-43.69-18.12-34.09 0-61.81 27.71-61.82 61.78 0 11.67 3.26 23.04 9.45 32.88l1.47 2.34-6.24 22.8z"/><path clip-rule="evenodd" d="m56.44 43.24c-1.39-3.09-2.86-3.16-4.18-3.21-1.08-.05-2.32-.04-3.56-.04s-3.25.47-4.95 2.32c-1.7 1.86-6.5 6.35-6.5 15.49s6.66 17.97 7.59 19.21 12.85 20.6 31.74 28.04c15.69 6.19 18.89 4.96 22.29 4.65 3.41-.31 10.99-4.49 12.54-8.83s1.55-8.06 1.08-8.83c-.46-.77-1.7-1.24-3.56-2.17s-10.99-5.42-12.69-6.04-2.94-.93-4.18.93-4.8 6.04-5.88 7.28-2.17 1.4-4.03.47-7.84-2.89-14.94-9.22c-5.52-4.92-9.25-11-10.34-12.86-1.08-1.86-.12-2.86.82-3.79.83-.83 1.86-2.17 2.79-3.25s1.24-1.86 1.86-3.1.31-2.33-.15-3.25c-.48-.94-4.1-10.13-5.75-13.8z" fill-rule="evenodd"/></g></svg>
